<?xml version="1.0" standalone="no"?>
<!DOCTYPE svg PUBLIC "-//W3C//DTD SVG 20010904//EN"
 "http://www.w3.org/TR/2001/REC-SVG-20010904/DTD/svg10.dtd">
<svg version="1.0" xmlns="http://www.w3.org/2000/svg"
 width="240.000000pt" height="62.000000pt" viewBox="0 0 240.000000 62.000000"
 preserveAspectRatio="xMidYMid meet">
<metadata>
Created by potrace 1.10, written by Peter Selinger 2001-2011
</metadata>
<g transform="translate(0.000000,62.000000) scale(0.100000,-0.100000)"
fill="#000000" stroke="none">
<path d="M394 460 l-142 -140 154 0 154 0 0 31 0 32 -70 -5 c-38 -3 -70 -4
-70 -3 0 2 28 30 63 64 l62 60 91 -90 c88 -88 92 -90 132 -87 l42 3 -131 138
c-72 75 -134 137 -137 137 -4 0 -71 -63 -148 -140z m2 -67 c-3 -3 -1 -13 4
-23 8 -14 5 -16 -15 -12 -14 2 -25 10 -25 16 0 17 21 36 32 30 5 -3 7 -8 4
-11z"/>
<path d="M955 513 c-65 -12 -105 -51 -105 -103 0 -34 30 -69 70 -81 41 -13
110 -5 110 13 0 6 -11 8 -27 5 -30 -6 -73 8 -85 26 -13 21 -9 82 8 105 19 28
60 29 76 2 16 -25 28 -26 28 -1 0 21 -42 40 -75 34z"/>
<path d="M1115 506 c-76 -34 -93 -107 -37 -157 37 -33 85 -38 132 -14 60 31
70 107 19 149 -17 14 -37 26 -44 26 -7 0 -19 2 -27 5 -7 2 -26 -2 -43 -9z m62
-14 c20 -13 34 -63 27 -98 -13 -68 -70 -82 -94 -24 -29 69 18 154 67 122z"/>
<path d="M1365 509 c-37 -11 -58 -28 -73 -56 -42 -78 41 -151 145 -126 36 8
38 11 38 47 0 37 -1 38 -37 42 -37 3 -52 -9 -24 -19 11 -4 13 -14 7 -34 -17
-63 -81 -23 -81 50 0 78 54 114 100 65 20 -22 20 -22 20 -1 0 15 -10 24 -31
32 -18 6 -32 11 -33 10 -1 0 -14 -5 -31 -10z"/>
<path d="M1980 511 c-28 -8 -50 -44 -43 -70 2 -10 25 -28 49 -40 36 -17 45
-26 42 -44 -4 -32 -42 -34 -73 -3 l-25 25 0 -27 c0 -25 3 -27 51 -30 68 -4
101 17 97 61 -3 28 -10 35 -56 57 -35 16 -52 29 -50 40 4 21 52 25 71 6 20
-20 27 -20 27 -1 0 9 -12 20 -26 25 -28 11 -28 11 -64 1z"/>
<path d="M1501 500 c14 -8 15 -22 11 -82 -2 -40 -9 -79 -14 -85 -8 -10 -1 -13
28 -13 35 1 37 2 22 14 -14 10 -18 28 -18 77 l0 64 75 -80 74 -80 3 90 c3 89
3 90 28 90 24 0 25 -3 30 -75 5 -67 7 -76 30 -87 39 -20 86 -16 110 9 16 17
20 35 20 84 0 49 4 65 18 73 13 8 8 10 -27 11 -39 0 -42 -2 -27 -13 14 -10 16
-25 14 -82 l-3 -70 -40 0 -40 0 -3 70 c-2 57 0 72 14 82 15 11 2 13 -77 13
-52 0 -89 -4 -82 -8 6 -4 14 -29 18 -57 l7 -50 -59 58 c-49 47 -64 57 -93 57
-27 -1 -31 -3 -19 -10z"/>
<path d="M581 304 l-1 -95 55 47 c51 45 66 64 47 64 -4 0 -26 18 -50 40 -23
22 -44 40 -46 40 -2 0 -5 -43 -5 -96z m75 24 c4 -7 3 -8 -4 -4 -7 4 -12 3 -12
-3 0 -5 5 -13 11 -17 8 -4 3 -11 -12 -20 -18 -9 -26 -9 -31 -1 -4 6 -2 15 5
19 9 6 9 8 0 8 -7 0 -13 5 -13 11 0 6 7 9 15 6 8 -4 17 -2 20 3 8 13 12 12 21
-2z"/>
<path d="M392 161 c77 -75 143 -137 147 -139 7 -2 271 263 271 273 0 3 -19 5
-42 5 -40 0 -48 -5 -133 -90 l-90 -90 -63 60 -63 60 70 0 71 0 0 30 0 29 -154
-1 -154 -1 140 -136z m2 93 c14 -5 14 -9 4 -22 -9 -11 -9 -13 -1 -9 6 4 14 3
17 -2 10 -15 -10 -22 -21 -8 -12 14 -24 47 -19 47 3 0 12 -3 20 -6z"/>
<path d="M1162 273 c170 -2 446 -2 615 0 170 1 31 2 -307 2 -338 0 -477 -1
-308 -2z"/>
<path d="M888 213 c7 -2 12 -22 12 -44 0 -21 5 -39 10 -39 6 0 10 18 10 40 0
22 5 40 10 40 6 0 10 -18 10 -40 0 -37 2 -40 28 -39 26 0 26 1 5 9 -13 5 -23
12 -23 15 0 3 10 10 23 15 16 6 17 9 5 9 -27 1 -31 20 -6 30 18 8 10 10 -37
10 -33 -1 -54 -3 -47 -6z"/>
<path d="M1012 208 c-17 -17 -15 -53 4 -72 19 -20 25 -20 50 -1 18 13 18 14
-10 12 -39 -3 -58 26 -33 50 15 15 20 16 38 5 18 -11 20 -11 17 0 -6 17 -50
22 -66 6z"/>
<path d="M1090 175 c0 -25 5 -45 10 -45 6 0 10 9 10 20 0 27 28 25 33 -2 2
-13 4 0 4 27 0 28 -2 40 -4 28 -5 -28 -33 -30 -33 -3 0 11 -4 20 -10 20 -5 0
-10 -20 -10 -45z"/>
<path d="M1171 175 c1 -41 3 -45 8 -20 l7 30 18 -27 c25 -38 31 -35 30 12 -1
47 -14 68 -14 24 l-1 -29 -24 30 -25 30 1 -50z"/>
<path d="M1262 208 c-19 -19 -15 -66 8 -78 37 -20 67 10 60 60 -4 29 -46 40
-68 18z m51 -20 c14 -21 2 -48 -22 -48 -24 0 -37 36 -20 56 14 17 28 14 42 -8z"/>
<path d="M1345 175 c-1 -42 1 -45 25 -44 17 1 19 3 8 6 -13 3 -18 15 -18 44 0
21 -3 39 -7 39 -5 0 -8 -20 -8 -45z"/>
<path d="M1411 211 c-19 -12 -17 -62 3 -77 26 -18 50 -10 61 20 16 45 -25 82
-64 57z m49 -16 c19 -23 8 -50 -20 -50 -28 0 -39 27 -20 50 16 19 24 19 40 0z"/>
<path d="M1502 208 c-18 -18 -15 -53 8 -73 17 -15 24 -16 45 -7 32 15 33 42 3
41 -13 0 -17 -3 -10 -6 19 -7 14 -23 -7 -23 -29 0 -45 25 -31 49 12 24 30 27
49 9 11 -11 13 -10 9 2 -6 19 -49 25 -66 8z"/>
<path d="M1594 198 c9 -12 16 -35 16 -51 0 -16 4 -26 10 -22 6 3 10 17 10 31
0 14 5 34 10 45 13 23 -5 27 -18 3 -8 -15 -10 -15 -15 0 -4 9 -11 16 -17 16
-7 0 -5 -9 4 -22z"/>
<path d="M1691 218 c-3 -8 -4 -45 -2 -73 1 -10 11 -15 31 -15 29 0 30 2 30 45
0 26 -5 45 -11 45 -6 0 -9 -15 -7 -37 2 -29 -1 -38 -14 -41 -13 -3 -18 6 -21
40 -2 24 -5 40 -6 36z"/>
<path d="M1771 200 c-1 -14 -4 -36 -6 -50 l-6 -25 11 25 11 25 14 -25 13 -25
14 30 13 29 6 -30 c7 -29 7 -29 8 6 1 55 -13 66 -29 22 l-13 -37 -18 40 c-15
35 -18 37 -18 15z"/>
<path d="M1860 175 c0 -25 5 -45 11 -45 6 0 10 10 9 23 -6 68 15 74 23 7 4
-34 4 -34 5 7 1 23 8 44 15 46 6 3 -5 6 -25 6 l-38 1 0 -45z"/>
<path d="M1939 193 c0 -16 -2 -36 -4 -45 -3 -14 3 -18 28 -17 24 1 26 3 10 6
-27 5 -31 30 -5 36 16 4 16 5 0 6 -26 2 -22 29 5 34 19 4 18 4 -5 6 -24 1 -28
-3 -29 -26z"/>
<path d="M2000 176 c0 -44 1 -46 30 -46 24 0 31 5 36 27 9 34 -6 57 -40 61
-25 3 -26 1 -26 -42z m43 12 c13 -20 2 -48 -18 -48 -11 0 -15 10 -15 36 0 37
14 42 33 12z"/>
</g>
</svg>
