<?xml version="1.0" standalone="no"?>
<!DOCTYPE svg PUBLIC "-//W3C//DTD SVG 20010904//EN"
 "http://www.w3.org/TR/2001/REC-SVG-20010904/DTD/svg10.dtd">
<svg version="1.0" xmlns="http://www.w3.org/2000/svg"
 width="512.000000pt" height="512.000000pt" viewBox="0 0 512.000000 512.000000"  stroke=""
 preserveAspectRatio="xMidYMid meet">

<g transform="translate(0.000000,512.000000) scale(0.100000,-0.100000)" fill="#FFFFFF"
 stroke="">
<path d="M2345 4974 c-335 -74 -600 -278 -749 -575 l-53 -106 -21 24 c-39 44
-122 18 -122 -38 0 -12 19 -54 42 -93 l41 -71 2 -185 c1 -165 4 -195 28 -283
61 -229 200 -444 370 -576 60 -45 103 -53 130 -23 37 41 24 67 -97 185 -82 82
-126 134 -160 192 -91 156 -136 317 -136 484 0 145 3 151 73 190 85 46 107 68
107 106 0 44 -29 68 -75 63 -32 -4 -34 -2 -29 17 37 120 194 311 332 404 274
185 638 215 929 77 202 -96 373 -269 459 -462 l24 -55 -45 -77 c-49 -83 -53
-106 -29 -140 20 -29 76 -30 104 -2 19 19 19 19 26 -17 11 -60 -3 -253 -26
-338 -75 -290 -306 -543 -588 -645 -157 -57 -207 -60 -959 -60 l-682 0 -21
-27 c-25 -32 -20 -69 12 -95 19 -17 67 -18 692 -18 377 0 709 4 757 10 306 35
600 211 769 460 63 92 127 234 157 345 24 89 27 119 27 271 l1 171 38 -5 c48
-6 77 18 77 63 0 38 -13 50 -103 103 -67 39 -68 41 -122 148 -140 281 -385
480 -695 565 -102 29 -382 36 -485 13z" />
<path d="M2478 4539 c-10 -6 -21 -28 -25 -52 -4 -30 -17 -53 -43 -79 -34 -35
-43 -38 -92 -38 -42 0 -62 6 -88 25 -19 14 -39 25 -44 25 -18 0 -126 -114
-126 -133 0 -10 9 -30 21 -46 29 -40 34 -98 12 -141 -22 -41 -76 -80 -112 -80
-43 0 -51 -17 -51 -106 0 -90 4 -98 62 -108 101 -18 150 -140 88 -219 -33 -42
-26 -69 34 -126 30 -28 62 -51 70 -51 8 0 32 11 52 25 43 29 100 33 145 10 33
-18 69 -69 69 -100 0 -11 7 -31 16 -43 13 -20 24 -22 94 -22 70 0 81 2 94 22
9 12 16 32 16 43 0 31 36 82 69 100 45 23 102 19 145 -10 20 -14 44 -25 52
-25 8 0 40 23 70 51 60 57 67 84 34 126 -62 79 -13 201 88 219 58 10 62 18 62
108 0 89 -8 106 -51 106 -36 0 -90 39 -112 80 -22 43 -17 101 12 141 12 16 21
36 21 46 0 19 -107 133 -125 133 -6 0 -26 -11 -45 -25 -26 -19 -46 -25 -88
-25 -49 0 -58 3 -92 38 -26 26 -39 49 -44 79 -4 27 -13 46 -25 53 -25 13 -141
13 -163 -1z m199 -344 c108 -45 183 -158 183 -275 0 -36 -7 -87 -16 -113 -20
-60 -84 -131 -148 -165 -44 -23 -63 -27 -136 -27 -73 0 -92 4 -136 27 -28 15
-70 48 -92 73 -144 164 -65 432 146 492 55 15 146 10 199 -12z"/>
<path d="M3640 3110 c-28 -28 -26 -71 5 -100 14 -13 25 -27 25 -32 0 -4 -105
-8 -234 -8 l-235 0 -20 -26 c-27 -35 -26 -59 4 -89 l24 -25 231 0 232 0 -26
-31 c-34 -41 -34 -81 1 -109 19 -15 35 -19 53 -15 34 8 207 183 216 218 6 25
-3 37 -97 132 -111 113 -138 126 -179 85z"/>
<path d="M2510 2750 c-19 -19 -20 -33 -20 -300 l0 -280 -936 -2 -936 -3 -19
-24 c-18 -22 -19 -43 -19 -348 l0 -324 25 -24 c30 -31 65 -32 93 -2 22 23 22
30 22 305 l0 282 885 0 885 0 0 -283 c0 -283 0 -284 23 -305 29 -28 57 -28 91
-1 l26 20 0 285 0 284 885 0 885 0 0 -283 c0 -283 0 -284 23 -305 30 -29 62
-28 92 3 l25 24 0 324 c0 305 -1 326 -19 348 l-19 24 -936 3 -936 2 0 278 c0
266 -1 279 -20 300 -26 28 -73 29 -100 2z"  />
<path d="M211 1276 c-50 -28 -50 -26 -51 -563 0 -296 4 -512 10 -527 5 -14 21
-33 37 -43 25 -17 59 -18 451 -18 l424 0 29 33 29 32 0 520 0 519 -24 28 -24
28 -429 2 c-343 2 -433 0 -452 -11z m729 -266 c29 -29 26 -74 -6 -99 -25 -20
-39 -21 -286 -21 l-259 0 -24 25 c-30 30 -31 54 -4 89 l20 26 270 0 c256 0
270 -1 289 -20z m-6 -251 c32 -25 35 -70 6 -99 -19 -19 -33 -20 -289 -20
l-270 0 -20 26 c-27 35 -26 59 4 89 l24 25 259 0 c247 0 261 -1 286 -21z m6
-259 c29 -29 26 -74 -7 -100 -26 -20 -35 -21 -291 -18 -264 3 -264 3 -283 27
-24 30 -24 52 2 85 l20 26 270 0 c256 0 270 -1 289 -20z"  />
<path d="M2125 1278 c-11 -6 -28 -20 -37 -32 -16 -19 -18 -63 -18 -537 0 -505
0 -517 20 -542 12 -15 38 -31 58 -37 50 -13 774 -13 824 0 20 6 46 22 58 37
20 25 20 37 20 534 0 373 -3 515 -12 534 -25 54 -32 55 -480 55 -281 -1 -419
-4 -433 -12z m725 -270 c27 -29 25 -64 -5 -93 l-24 -25 -261 0 -261 0 -24 25
c-30 29 -32 64 -5 93 20 22 26 22 290 22 264 0 270 0 290 -22z m-5 -253 c30
-29 32 -64 5 -93 -20 -22 -26 -22 -290 -22 -264 0 -270 0 -290 22 -27 29 -25
64 5 93 l24 25 261 0 261 0 24 -25z m5 -257 c27 -29 25 -64 -5 -93 l-24 -25
-261 0 -261 0 -24 25 c-30 29 -32 64 -5 93 20 22 26 22 290 22 264 0 270 0
290 -22z"  />
<path d="M4034 1280 c-55 -22 -54 -12 -54 -572 l0 -518 29 -32 29 -33 424 0
c392 0 426 1 451 18 16 10 32 29 37 43 15 39 13 1016 -2 1049 -25 54 -32 55
-480 54 -227 0 -423 -4 -434 -9z m725 -276 c27 -35 26 -59 -4 -89 l-24 -25
-259 0 c-247 0 -261 1 -286 21 -32 25 -35 70 -6 99 19 19 33 20 289 20 l270 0
20 -26z m-4 -249 c30 -30 31 -54 4 -89 l-20 -26 -270 0 c-256 0 -270 1 -289
20 -29 29 -26 74 6 99 25 20 39 21 286 21 l259 0 24 -25z m4 -261 c26 -33 26
-55 2 -85 -19 -24 -19 -24 -283 -27 -256 -3 -265 -2 -291 18 -33 26 -36 71 -7
100 19 19 33 20 289 20 l270 0 20 -26z"  />
</g>
</svg>



