<?xml version="1.0" standalone="no"?>
<!DOCTYPE svg PUBLIC "-//W3C//DTD SVG 20010904//EN"
 "http://www.w3.org/TR/2001/REC-SVG-20010904/DTD/svg10.dtd">
<svg version="1.0" xmlns="http://www.w3.org/2000/svg"
 width="512.000000pt" height="512.000000pt" viewBox="0 0 512.000000 512.000000"
 preserveAspectRatio="xMidYMid meet" fill="#FFFFFF">

<g transform="translate(0.000000,512.000000) scale(0.100000,-0.100000)"
>
<path d="M2165 4874 c-16 -2 -73 -9 -125 -15 -263 -30 -607 -134 -843 -256
l-39 -19 66 -33 c108 -53 177 -148 199 -275 9 -53 8 -74 -8 -132 -10 -38 -20
-94 -22 -124 -4 -52 0 -64 71 -208 54 -108 80 -151 89 -146 6 5 146 97 309
205 376 250 426 271 680 289 138 10 242 38 327 88 25 15 104 73 175 129 124
99 150 112 191 97 21 -8 225 -312 270 -403 32 -63 84 -222 86 -260 0 -18 14
16 66 164 118 337 -20 683 -332 835 -137 67 -167 70 -678 69 -249 -1 -465 -4
-482 -5z"/>
<path d="M3082 4205 c-166 -133 -353 -204 -537 -205 -88 0 -190 -22 -263 -55
-32 -14 -180 -107 -329 -207 l-273 -181 0 -59 0 -58 375 0 376 0 24 -25 c21
-20 25 -34 25 -80 l0 -55 80 0 80 0 0 55 c0 46 4 60 25 80 l24 25 376 0 375 0
0 150 c0 165 -15 264 -56 365 -22 55 -192 325 -204 324 -3 0 -47 -33 -98 -74z"/>
<path d="M1431 3262 c-64 -35 -88 -115 -53 -180 16 -30 161 -156 170 -147 2 2
-1 41 -7 87 -6 46 -13 122 -17 171 -7 86 -7 87 -33 87 -14 0 -42 -8 -60 -18z"/>
<path d="M1685 3188 c14 -204 59 -413 127 -598 33 -90 113 -263 147 -318 l21
-32 582 2 582 3 34 60 c141 247 232 560 258 888 l6 87 -81 0 -81 0 0 -136 c0
-170 -9 -204 -75 -269 -63 -64 -100 -75 -245 -75 -145 0 -182 11 -245 75 -57
56 -75 102 -75 189 l0 56 -80 0 -80 0 0 -56 c0 -87 -18 -133 -75 -189 -63 -64
-100 -75 -245 -75 -145 0 -182 11 -245 75 -66 65 -75 99 -75 269 l0 136 -81 0
-81 0 7 -92z"/>
<path d="M2000 3145 c0 -131 1 -137 25 -160 23 -24 31 -25 135 -25 104 0 112
1 135 25 24 23 25 29 25 160 l0 135 -160 0 -160 0 0 -135z"/>
<path d="M2800 3145 c0 -131 1 -137 25 -160 23 -24 31 -25 135 -25 104 0 112
1 135 25 24 23 25 29 25 160 l0 135 -160 0 -160 0 0 -135z"/>
<path d="M3596 3194 c-4 -49 -12 -126 -18 -172 -5 -46 -8 -85 -6 -87 8 -9 154
117 171 147 43 78 -11 183 -100 195 l-40 5 -7 -88z"/>
<path d="M1040 2067 c-49 -16 -133 -102 -148 -153 -9 -31 -12 -246 -12 -858
l0 -816 1680 0 1680 0 0 816 c0 602 -3 827 -12 856 -6 22 -31 62 -55 88 -78
87 57 80 -1617 79 -1049 -1 -1491 -4 -1516 -12z m1026 -134 c78 -74 83 -59
-62 -204 l-129 -129 128 -128 c70 -70 127 -132 127 -137 0 -13 -92 -105 -105
-105 -6 0 -86 76 -178 168 -150 151 -167 172 -167 202 0 30 17 51 167 202 92
92 170 168 173 168 3 0 24 -17 46 -37z m773 -42 l25 -19 -240 -320 -240 -320
-58 44 c-33 24 -61 46 -64 48 -3 3 103 149 234 324 l239 319 40 -29 c22 -15
51 -37 64 -47z m434 -89 c150 -151 167 -172 167 -202 0 -30 -17 -51 -170 -204
l-170 -171 -57 57 -58 58 130 130 130 130 -128 128 c-70 70 -127 132 -127 137
0 13 92 105 105 105 6 0 86 -76 178 -168z m-578 -713 c63 -30 123 -90 155
-154 20 -41 25 -65 25 -135 -1 -77 -4 -91 -34 -148 -38 -70 -70 -101 -145
-140 -43 -22 -64 -26 -136 -26 -70 -1 -94 4 -135 24 -260 128 -238 495 35 594
63 23 170 16 235 -15z"/>
<path d="M2495 946 c-101 -44 -125 -178 -46 -257 65 -65 157 -65 222 0 124
124 -15 327 -176 257z"/>
<path d="M651 1303 c-129 -76 -269 -238 -336 -389 -57 -130 -67 -191 -72 -442
l-5 -232 241 0 241 0 0 550 c0 303 -1 550 -3 550 -1 0 -31 -17 -66 -37z"/>
<path d="M4400 790 l0 -550 241 0 241 0 -5 233 c-4 248 -12 294 -69 434 -60
144 -191 300 -325 387 -39 25 -74 46 -77 46 -3 0 -6 -247 -6 -550z"/>
</g>
</svg>
