<svg xmlns="http://www.w3.org/2000/svg" data-name="Layer 2" viewBox="0 0 32 40" x="0px" y="0px" fill='#FFFFFF'><title>Focus, interface, selector, square, targeting</title><path d="M3,14a1,1,0,0,0,1-1V4h9a1,1,0,0,0,0-2H3A1,1,0,0,0,2,3V13A1,1,0,0,0,3,14Z"/><path d="M19,4h9v9a1,1,0,0,0,2,0V3a1,1,0,0,0-1-1H19a1,1,0,0,0,0,2Z"/><path d="M30,19a1,1,0,0,0-2,0v9H19a1,1,0,0,0,0,2H29a1,1,0,0,0,1-1Z"/><path d="M3,30H13a1,1,0,0,0,0-2H4V19a1,1,0,0,0-2,0V29A1,1,0,0,0,3,30Z"/><circle cx="16" cy="16" r="8"/><text x="0" y="47" fill="#000000" font-size="5px" font-weight="bold" font-family="'Helvetica Neue', Helvetica, Arial-Unicode, Arial, Sans-serif">Created by Fauzan Adiima</text><text x="0" y="52" fill="#000000" font-size="5px" font-weight="bold" font-family="'Helvetica Neue', Helvetica, Arial-Unicode, Arial, Sans-serif">from the Noun Project</text></svg>